<svg width="512" height="512" viewBox="0 0 512 512" fill="none" xmlns="http://www.w3.org/2000/svg">
<g clip-path="url(#clip0_763_20)">
<path d="M0 0V512H512V0H0ZM482 482H30V30H482V482Z" fill="#262C34"/>
<path d="M317.554 232.789C302.911 232.789 296.745 246.083 295.782 255.711H337.008C337.207 247.047 333.353 232.789 317.554 232.789ZM212.546 201.577H212.161C210.234 209.091 208.307 218.147 205.995 225.848L195.976 257.83H229.303L219.091 225.848C216.592 217.954 214.473 209.091 212.546 201.577ZM120 120V392H392V120H120ZM245.108 312.548L233.355 275.754H192.128L180.953 312.548H156.484L198.096 182.702H228.34L270.53 312.548H245.108ZM358.588 272.28H295.782C296.365 289.235 309.654 296.556 324.683 296.556C335.665 296.556 343.565 295.015 350.694 292.318L354.156 308.694C346.064 311.97 334.895 314.474 321.407 314.474C290.97 314.474 273.052 295.786 273.052 267.084C273.052 241.08 288.851 216.611 318.908 216.611C349.345 216.611 359.364 241.652 359.364 262.267C359.359 266.699 358.979 270.161 358.588 272.28Z" fill="#262C34"/>
</g>
<defs>
<clipPath id="clip0_763_20">
<rect width="512" height="512" fill="white"/>
</clipPath>
</defs>
</svg>
