<svg width="512" height="512" viewBox="0 0 512 512" fill="none" xmlns="http://www.w3.org/2000/svg">
<g clip-path="url(#clip0_675_13)">
<path d="M0 0V512H512V0H0ZM482 482H30V30H482V482Z" fill="#262C34"/>
<path d="M359.4 182.3H291.6V202H359.4V182.3Z" fill="#262C34"/>
<path d="M285.8 322.7C297.7 332.3 311.4 337.1 327 337.1C345.9 337.1 360.5 331.4 371 320C377.7 312.8 381.5 305.7 382.3 298.8H351.1C349.3 302.3 347.2 305 344.8 306.9C340.4 310.5 334.7 312.3 327.8 312.3C321.2 312.3 315.6 310.8 310.9 307.9C303.2 303.2 299.2 294.9 298.7 283.2H383.9C384.1 273.1 383.7 265.4 382.9 260C381.5 250.8 378.4 242.7 373.6 235.8C368.3 227.9 361.6 222.1 353.4 218.5C345.3 214.8 336.1 213 325.8 213.1C308.7 213.1 294.8 218.5 284 229.3C273.3 240.1 267.9 255.6 267.9 275.9C267.9 297.5 273.9 313.1 285.8 322.7ZM307.7 244.9C312 240.5 318.1 238.2 325.9 238.2C333.1 238.2 339.2 240.3 344.1 244.5C348.9 248.7 351.6 254.9 352.2 263H299.5C300.7 255.4 303.4 249.4 307.7 244.9Z" fill="#262C34"/>
<path d="M221.6 331.1C228.5 329.6 234.5 327 239.5 323.1C244 319.8 247.7 315.6 250.7 310.7C255.5 303.3 257.8 294.9 257.8 285.5C257.8 276.4 255.7 268.7 251.6 262.3C247.5 255.9 241.4 251.3 233.3 248.3C238.6 245.6 242.7 242.6 245.4 239.3C250.3 233.4 252.7 225.6 252.7 216C252.7 206.6 250.3 198.5 245.5 191.8C237.4 180.8 223.7 175.2 204.5 174.9H128V333.2H199.2C207.3 333.2 214.7 332.5 221.6 331.1ZM159.5 202.4H193.9C201.5 202.4 207.7 203.3 212.6 204.9C218.3 207.3 221.1 212.1 221.1 219.5C221.1 226.1 219 230.8 214.7 233.4C210.4 236 204.9 237.3 198 237.3H159.5V202.4ZM159.5 305.6V263.4H198.5C205.3 263.5 210.5 264.4 214.3 266.1C221.1 269.2 224.4 274.9 224.4 283.1C224.4 292.8 221 299.3 214 302.8C210.2 304.7 204.9 305.6 198 305.6H159.5Z" fill="#262C34"/>
</g>
<defs>
<clipPath id="clip0_675_13">
<rect width="512" height="512" fill="white"/>
</clipPath>
</defs>
</svg>
