<svg width="512" height="512" viewBox="0 0 512 512" fill="none" xmlns="http://www.w3.org/2000/svg">
<g clip-path="url(#clip0_763_32)">
<path d="M0 0V512H512V0H0ZM482 482H30V30H482V482Z" fill="#262C34"/>
<path d="M260.924 272.005C261.549 261.13 266.874 251.533 274.915 244.736C283.352 237.723 293.994 233.92 304.961 233.998C316.507 233.998 327.116 238.076 334.994 244.736C343.035 251.533 348.347 261.13 348.958 271.991C349.569 283.179 345.087 293.551 337.208 301.258C328.531 309.552 316.96 314.127 304.961 314.009C292.954 314.128 281.375 309.553 272.687 301.258C264.809 293.551 260.313 283.179 260.924 272.005ZM190.834 293.986C190.915 298.254 192.274 306.519 194.311 312.989C198.71 326.91 206.095 339.701 215.95 350.466C226.518 362.095 239.418 371.363 253.806 377.667C269.466 384.575 286.408 388.096 303.521 387.998C320.632 388.032 337.558 384.456 353.196 377.504C367.574 371.141 380.461 361.833 391.026 350.181C400.864 339.38 408.242 326.57 412.65 312.636C416.889 299.136 418.049 284.857 416.046 270.849C414.139 257.429 409.437 244.56 402.245 233.073C395.583 222.388 387.063 212.983 377.089 205.302H377.116L275.268 127.044L274.996 126.84C268.313 121.702 257.08 121.729 249.731 126.867C242.301 132.06 241.459 140.665 248.061 146.102L248.047 146.116L290.509 180.684L161.059 180.82H160.883C150.179 180.833 139.896 187.861 137.859 196.751C135.767 205.791 143.021 213.295 154.159 213.335V213.363L219.766 213.227L102.678 303.175L102.216 303.515C91.1728 311.97 87.614 326.053 94.5687 334.956C101.632 344.023 116.642 344.037 127.807 335.011L191.703 282.689C191.703 282.689 190.752 289.758 190.834 293.986ZM355.057 317.652C341.881 331.082 323.462 338.694 303.508 338.722C283.54 338.776 265.108 331.218 251.932 317.815C245.71 311.564 240.91 304.044 237.86 295.766C235.064 287.979 233.959 279.684 234.62 271.435C235.28 263.186 237.69 255.174 241.69 247.931C245.669 240.772 250.986 234.445 257.352 229.294C270.147 218.854 286.434 213.213 303.481 213.186C320.541 213.159 336.828 218.759 349.637 229.158C356.157 234.473 361.455 240.767 365.285 247.741C369.25 254.886 371.666 262.788 372.376 270.931C373.095 279.276 371.987 287.677 369.129 295.549C366.078 303.839 361.27 311.376 355.057 317.652Z" fill="black"/>
</g>
<defs>
<clipPath id="clip0_763_32">
<rect width="512" height="512" fill="white"/>
</clipPath>
</defs>
</svg>
