<svg width="512" height="512" viewBox="0 0 512 512" fill="none" xmlns="http://www.w3.org/2000/svg">
<g clip-path="url(#clip0_729_2)">
<path d="M0 0V512H512V0H0ZM482 482H30V30H482V482Z" fill="#262C34"/>
<path d="M203.735 240.102H180.404C179.978 237.083 179.108 234.402 177.794 232.058C176.48 229.679 174.793 227.655 172.734 225.986C170.674 224.317 168.295 223.038 165.596 222.151C162.933 221.263 160.038 220.819 156.913 220.819C151.267 220.819 146.349 222.222 142.158 225.027C137.968 227.797 134.719 231.845 132.411 237.172C130.102 242.463 128.948 248.891 128.948 256.455C128.948 264.232 130.102 270.766 132.411 276.057C134.754 281.348 138.021 285.343 142.212 288.042C146.402 290.741 151.249 292.09 156.754 292.09C159.843 292.09 162.702 291.682 165.33 290.865C167.993 290.048 170.354 288.859 172.414 287.296C174.474 285.698 176.178 283.763 177.528 281.49C178.913 279.217 179.871 276.625 180.404 273.713L203.735 273.82C203.131 278.827 201.622 283.656 199.207 288.308C196.828 292.925 193.614 297.062 189.566 300.719C185.553 304.342 180.759 307.218 175.184 309.349C169.644 311.444 163.376 312.491 156.381 312.491C146.651 312.491 137.95 310.29 130.28 305.886C122.645 301.483 116.608 295.109 112.169 286.763C107.766 278.418 105.564 268.315 105.564 256.455C105.564 244.558 107.801 234.438 112.276 226.092C116.75 217.747 122.822 211.391 130.493 207.023C138.163 202.619 146.793 200.418 156.381 200.418C162.702 200.418 168.561 201.305 173.959 203.081C179.392 204.857 184.204 207.449 188.394 210.858C192.585 214.232 195.994 218.369 198.621 223.269C201.285 228.17 202.989 233.781 203.735 240.102ZM252.235 294.381V218.955H271.304V294.381H252.235ZM224.056 266.202V247.133H299.483V266.202H224.056ZM354.188 294.381V218.955H373.257V294.381H354.188ZM326.01 266.202V247.133H401.436V266.202H326.01Z" fill="#262C34"/>
</g>
<defs>
<clipPath id="clip0_729_2">
<rect width="512" height="512" fill="white"/>
</clipPath>
</defs>
</svg>
