<svg width="512" height="512" viewBox="0 0 512 512" fill="none" xmlns="http://www.w3.org/2000/svg">
<g clip-path="url(#clip0_729_13)">
<path d="M0 0V512H512V0H0ZM482 482H30V30H482V482Z" fill="#262C34"/>
<path d="M255.762 392.579L153.495 364.57L132 119H379.524L358.028 364.57L255.762 392.579ZM177.596 344.377L255.762 365.872L333.927 344.377L350.863 145.055H160.661L177.596 344.377Z" fill="#262C34"/>
<path d="M190.624 177.624H320.9L309.175 316.368L255.11 333.955L200.395 320.276L194.532 273.377H223.844V296.826L255.11 302.689L283.771 296.826V261.652H194.532L192.578 232.34C195.255 229.898 198.727 228.51 202.349 228.432C247.294 228.432 283.771 232.34 283.771 232.34V208.89H194.532L190.624 177.624Z" fill="#262C34"/>
</g>
<defs>
<clipPath id="clip0_729_13">
<rect width="512" height="512" fill="white"/>
</clipPath>
</defs>
</svg>
