<svg width="512" height="512" viewBox="0 0 512 512" fill="none" xmlns="http://www.w3.org/2000/svg">
<g clip-path="url(#clip0_763_8)">
<path d="M0 0V512H512V0H0ZM482 482H30V30H482V482Z" fill="#262C34"/>
<path fill-rule="evenodd" clip-rule="evenodd" d="M204.938 92C170.731 92 143 119.975 143 154.484C143 175.545 153.329 194.173 169.155 205.492C153.329 216.812 143 235.439 143 256.5C143 277.561 153.329 296.188 169.155 307.507C153.329 318.828 143 337.454 143 358.516C143 393.024 170.731 421 204.938 421C239.146 421 266.877 393.024 266.877 358.516V304.892C277.551 313.7 291.195 318.984 306.062 318.984C340.27 318.984 368 291.01 368 256.5C368 235.439 357.672 216.812 341.846 205.492C357.672 194.173 368 175.545 368 154.484C368 119.975 340.27 92 306.062 92H204.938ZM244.124 296.03H204.938C183.297 296.03 165.753 278.332 165.753 256.5C165.753 234.668 183.297 216.969 204.938 216.969L244.124 216.969V256.5V296.03ZM204.938 194.016H244.124V114.953H204.938C183.297 114.953 165.753 132.652 165.753 154.484C165.753 176.317 183.297 194.016 204.938 194.016ZM345.247 154.484C345.247 176.303 327.726 193.993 306.105 194.016L286.49 194.015H266.877V114.953H306.062C327.703 114.953 345.247 132.652 345.247 154.484ZM266.877 256.451C266.903 234.657 284.411 216.995 306.014 216.969H306.1C327.724 216.99 345.247 234.68 345.247 256.5C345.247 278.332 327.703 296.03 306.062 296.03C284.436 296.03 266.903 278.358 266.877 256.549V256.451ZM204.938 318.984C183.297 318.984 165.753 336.683 165.753 358.516C165.753 380.348 183.297 398.047 204.938 398.047C226.58 398.047 244.124 380.348 244.124 358.516V318.984H204.938Z" fill="#262C34"/>
</g>
<defs>
<clipPath id="clip0_763_8">
<rect width="512" height="512" fill="white"/>
</clipPath>
</defs>
</svg>
