<svg width="512" height="512" viewBox="0 0 512 512" fill="none" xmlns="http://www.w3.org/2000/svg">
<g clip-path="url(#clip0_763_12)">
<path d="M0 0V512H512V0H0ZM482 482H30V30H482V482Z" fill="#262C34"/>
<path d="M404.138 242.725L269.223 107.821C265.617 104.225 260.641 102 255.139 102C249.638 102 244.661 104.225 241.056 107.821L213.104 135.824L248.638 171.358C250.905 170.565 253.512 170.111 256.231 170.111C269.306 170.111 279.897 180.703 279.897 193.777C279.897 196.548 279.423 199.196 278.547 201.669L278.599 201.504L312.824 235.75C315.112 234.936 317.76 234.462 320.51 234.462C333.574 234.462 344.165 245.054 344.165 258.118C344.165 271.181 333.574 281.773 320.51 281.773C307.446 281.773 296.855 271.181 296.855 258.118C296.855 254.893 297.504 251.823 298.669 249.02L298.607 249.175L266.565 217.298V301.307C274.436 305.273 279.742 313.289 279.742 322.541C279.742 335.625 269.131 346.237 256.046 346.237C242.962 346.237 232.35 335.625 232.35 322.541C232.35 316.009 234.987 310.105 239.263 305.819C241.437 303.645 244.023 301.884 246.897 300.647L247.052 300.585V215.753C238.377 212.105 232.401 203.668 232.401 193.849C232.401 190.552 233.071 187.42 234.287 184.566L234.225 184.721L199.309 149.64L106.79 242.097C103.205 245.713 101 250.689 101 256.191C101 261.693 103.215 266.669 106.8 270.285L241.725 405.169C245.321 408.775 250.297 411 255.799 411C261.3 411 266.266 408.775 269.872 405.169L404.158 270.883C407.764 267.287 410 262.3 410 256.809C410 251.318 407.764 246.331 404.158 242.736L404.138 242.725Z" fill="#262C34"/>
</g>
<defs>
<clipPath id="clip0_763_12">
<rect width="512" height="512" fill="white"/>
</clipPath>
</defs>
</svg>
