<svg width="512" height="512" viewBox="0 0 512 512" fill="none" xmlns="http://www.w3.org/2000/svg">
<g clip-path="url(#clip0_675_27)">
<path d="M0 0V512H512V0H0ZM482 482H30V30H482V482Z" fill="#262C34"/>
<path d="M197 364.2C216.3 367.6 236.2 367.9 254.3 369.4C274.5 367.9 293.2 367.8 311.4 364.9C343.2 359.8 367.2 342.9 379.2 312.2C383.4 301.5 385.7 289.8 387.1 278.4C390.2 253.2 385.9 229.6 368.7 209.7C367.9 208.8 367.4 207.4 367.5 206.2C368.4 186.1 365.7 166.6 358.9 147.6C358 145.2 356.9 144.3 354.4 145C348.8 146.7 343 148 337.5 150C322.3 155.5 308.4 163.5 294.9 172.2C293.5 173.1 291.4 173.7 289.7 173.4C267.6 169.5 245.4 169.7 223.2 173.1C221 173.4 218.2 172.9 216.4 171.8C200.7 161.6 184.7 151.6 166.4 146.8C151.3 142.8 154.4 142 150.1 155.7C145 172.1 143 189.1 144.1 206.3C144.2 207.5 143.3 209 142.5 210.1C135.9 218 130.8 226.7 127.7 236.5C121.7 255.5 122.9 274.7 126.7 293.8C134.2 331.5 159.6 357.7 197 364.2ZM164.4 274.7C172.9 258.2 187.6 252.4 205 252.1C214.5 252 224.1 252.8 233.7 253.7C253.8 255.5 273.7 253.6 293.7 252.5C302.5 252 311.5 251.8 320.1 253.3C338.6 256.5 352.6 274.9 352.9 295.6C353 301.7 352.3 308 351.1 314C347.8 329.6 338.7 340.3 323.5 345.8C308.8 351.2 293.6 353.4 278.1 354.4C270.6 354.9 263.1 354.5 255.6 354.5C235.4 354.9 215.2 354.1 195.7 348.3C171.2 341 160.2 326.4 159.5 300.8C159.2 291.7 160.2 282.9 164.4 274.7Z" fill="#262C34"/>
<path d="M221.7 321.1C231.5 310.5 231.4 290.6 221.7 280.1C215.2 273.1 205.8 272.9 199.1 279.9C193.6 285.6 191.7 292.8 191.4 299.2C191.4 308.8 194.2 316.5 199.1 321.5C205.9 328.3 215.2 328.2 221.7 321.1Z" fill="#262C34"/>
<path d="M291.2 322.2C297.7 328.1 306.5 327.8 312.6 321.5C318.2 315.7 320.2 308.4 320.4 300.5C320.2 292.6 318.2 285.4 312.5 279.6C306.4 273.3 297.6 273.1 291.1 279C280 289.3 280 312 291.2 322.2Z" fill="#262C34"/>
</g>
<defs>
<clipPath id="clip0_675_27">
<rect width="512" height="512" fill="white"/>
</clipPath>
</defs>
</svg>
