<svg width="512" height="512" viewBox="0 0 512 512" fill="none" xmlns="http://www.w3.org/2000/svg">
<g clip-path="url(#clip0_711_144)">
<path d="M0 0V512H512V0H0ZM482 482H30V30H482V482Z" fill="#262C34"/>
<path d="M140.57 234.98C130.54 239.694 103.995 260.911 98.8824 267.197C93.5727 273.483 92.0001 263.661 97.5057 247.356C101.831 234.194 112.844 216.317 131.327 200.995C142.141 192.155 165.935 179.387 180.485 171.921C183.436 170.349 221.583 154.241 255.601 146.186C258.551 145.4 252.062 151.097 251.078 154.241C245.966 169.17 143.911 233.212 143.911 233.212L140.57 234.98ZM284.31 415.121C286.079 425.729 284.507 426.515 273.496 427.89C262.483 429.265 254.421 425.139 251.472 422.39C248.522 419.638 247.933 413.55 250.882 408.049C252.653 404.513 254.422 403.334 255.406 399.012C256.389 394.887 257.176 393.905 257.962 392.334C258.747 390.957 258.945 389.582 259.141 379.957C259.338 370.332 259.141 352.258 260.125 344.597C261.109 336.74 295.127 348.133 295.127 348.133C295.127 348.133 287.064 368.17 284.902 373.081C282.738 377.993 282.935 387.422 282.935 389.386C282.935 391.351 282.149 395.279 281.558 395.476C280.969 395.672 283.525 400.779 282.344 403.727C281.558 406.477 284.114 413.55 284.31 415.121ZM297.288 114.755C296.108 107.29 297.288 92.5552 298.861 90.199C303.778 83.5192 329.733 82.7342 335.24 90.5916C337.599 94.1272 337.402 102.378 337.009 107.683C336.616 112.986 335.24 124.38 335.043 128.114C334.847 130.864 306.334 135.185 300.042 127.72C298.271 125.756 297.288 114.755 297.288 114.755ZM355.1 396.065C367.095 404.709 376.336 406.28 382.432 409.424C388.527 412.568 386.954 418.657 376.729 420.425C368.47 421.996 355.493 418.853 346.841 418.853C338.189 418.853 318.918 419.836 313.805 416.3C307.907 412.175 310.462 404.513 310.462 404.513C312.036 400.192 315.968 390.565 314.788 382.707C313.608 374.85 312.035 370.528 309.085 363.259C306.136 355.991 303.974 338.115 306.727 337.132C309.48 336.149 308.693 337.132 312.233 337.917C315.772 338.702 319.705 339.882 327.374 339.882C335.043 339.882 343.498 338.702 346.448 338.114C349.397 337.525 351.756 336.935 350.773 343.025C349.79 349.115 346.841 360.509 346.644 369.349C346.448 378.189 346.448 388.404 347.038 390.172C347.627 391.94 351.953 393.905 355.1 396.065Z" fill="#262C34"/>
<path d="M379.285 242.052C379.285 242.052 375.549 254.822 368.077 258.948C368.077 258.948 362.572 260.912 351.56 254.823C348.414 253.055 346.055 246.965 346.251 245C346.448 240.284 349.397 238.124 349.397 238.124C349.397 238.124 352.544 232.82 356.279 233.016C360.016 233.212 366.309 233.801 368.275 232.034C370.044 230.069 379.679 235.569 379.285 242.052ZM299.058 118.488C299.058 118.488 298.272 128.507 296.895 134.793C296.699 135.972 290.8 136.561 286.473 138.329C294.732 161.903 344.481 161.706 350.971 150.116C347.824 147.956 341.532 144.616 338.583 143.437C335.633 142.258 335.829 142.454 335.633 136.954C335.437 131.453 335.043 121.238 334.649 118.488C334.256 115.737 303.777 115.737 299.058 118.488Z" fill="#262C34"/>
<path d="M301.024 118.488C301.024 118.488 301.024 124.185 300.435 129.685C300.239 132.239 300.042 133.81 299.649 135.775C299.452 136.954 306.334 141.667 308.3 152.08C317.739 173.099 339.566 162.688 348.611 152.669C345.465 150.508 340.352 147.561 334.454 145.204C331.504 144.025 332.88 141.472 332.684 135.971C332.487 130.471 331.7 122.416 331.308 119.47C330.913 116.523 305.744 115.737 301.024 118.488Z" fill="#F0EFEF"/>
<path d="M299.058 118.488C299.058 118.488 298.861 122.024 298.272 126.149C300.827 128.702 304.171 132.239 306.728 134.4C308.497 135.972 312.822 135.776 316.756 135.776C320.295 135.776 323.442 136.168 324.818 135.383C327.965 133.811 332.487 129.883 335.044 126.935C334.848 123.4 334.651 120.06 334.455 118.488C334.256 115.737 303.777 115.737 299.058 118.488Z" fill="#262C34"/>
<path d="M316.952 133.418C314.592 133.418 311.839 133.222 309.676 132.828C308.692 132.633 307.71 132.043 306.923 131.65C305.546 130.667 304.17 129.489 302.598 128.31C299.451 125.953 299.255 124.577 299.255 123.989C300.631 111.612 298.861 101.201 298.861 101.201C298.861 101.201 297.484 95.8966 304.956 94.5213C312.428 93.146 316.951 92.9502 316.951 92.9502C316.951 92.9502 321.671 92.9502 328.946 94.5213C336.418 95.8966 335.042 101.201 335.042 101.201C335.042 101.201 333.272 111.612 334.649 123.989C334.649 124.577 334.453 125.953 331.306 128.31C328.552 130.274 326.39 132.435 324.227 132.828C322.064 133.222 319.311 133.418 316.952 133.418Z" fill="#262C34"/>
<path d="M316.952 87.8423C303.975 87.8423 301.417 91.378 297.681 95.3071C296.895 96.2889 297.484 102.183 298.862 114.755H300.631C300.631 114.755 299.451 111.219 299.648 107.094C299.845 102.969 300.631 103.165 300.041 102.183C299.255 101.003 297.681 99.0386 301.221 97.075C304.76 95.1104 310.266 98.6461 316.952 98.8428C323.638 98.6461 329.34 95.1104 332.879 97.075C336.418 99.0386 334.846 101.003 334.06 102.183C333.273 103.361 334.256 102.968 334.453 107.094C334.649 111.219 333.469 114.755 333.469 114.755H335.239C336.418 102.183 337.205 96.6824 336.615 95.6997C333.272 91.378 329.93 88.0381 316.952 87.8423ZM379.285 242.641C379.285 242.641 375.549 254.625 368.274 258.75C366.701 257.965 366.897 256.786 365.521 255.017C365.127 254.429 363.75 254.035 363.161 253.446C362.572 252.857 362.769 251.874 361.785 251.089C360.998 250.303 360.408 250.892 359.621 250.303C358.836 249.518 358.638 248.535 358.049 247.947C357.655 247.553 356.082 247.358 355.689 246.964C354.706 245.981 346.055 244.214 346.448 242.249C347.234 239.302 348.807 237.141 348.807 237.141C348.807 237.141 352.543 231.641 356.278 231.837C360.014 232.033 363.554 232.82 365.521 231.052C367.684 229.086 379.876 236.355 379.285 242.641Z" fill="#262C34"/>
<path d="M353.723 155.813C353.723 155.813 366.111 152.866 374.567 160.921C383.022 169.172 382.432 179.386 379.876 185.672C382.039 188.226 385.972 195.298 383.022 203.745C396 214.746 390.297 231.641 378.696 242.838C378.696 242.838 375.943 232.623 364.932 232.033C365.325 228.105 354.707 224.961 359.622 214.746C352.15 212.978 352.347 207.87 351.167 201.585C350.184 195.298 353.723 155.813 353.723 155.813Z" fill="#262C34"/>
<path d="M349.2 161.313C349.2 161.313 363.554 154.045 372.01 162.296C380.465 170.547 378.105 179.583 375.549 185.869C377.712 188.422 382.824 195.692 379.678 204.334C379.088 206.299 374.763 206.299 371.615 211.407C379.48 206.887 384.397 208.067 386.167 213.763C388.92 222.603 382.824 233.211 377.515 239.105C377.515 238.908 377.318 238.711 377.318 238.515C376.532 241.463 375.548 247.159 369.65 253.445C366.7 256.588 364.34 256.196 360.997 255.41C357.065 254.427 355.688 252.658 350.183 249.713C347.037 247.945 348.806 245.784 348.806 244.016C348.806 243.623 349.199 243.033 349.79 242.248C350.183 241.265 351.363 239.695 353.132 237.926C353.132 237.926 355.688 234.391 359.425 234.586C363.162 234.783 367.094 233.998 368.077 233.015C368.077 226.14 360.212 225.943 362.965 214.156C363.161 213.567 364.145 212.584 367.29 212.192C362.571 211.209 360.408 211.012 357.065 207.87C354.706 205.71 352.936 202.959 352.345 199.423C351.167 193.334 349.2 161.313 349.2 161.313Z" fill="#F0EFEF"/>
<path d="M307.71 148.937C306.53 147.365 300.435 139.508 288.832 136.364C285.489 135.382 283.327 138.132 279.985 140.097C279.001 139.508 274.675 137.543 272.316 138.917C269.956 140.292 268.384 141.668 266.023 142.65C264.843 142.061 261.697 142.061 259.141 143.042C256.585 143.828 252.652 145.596 248.916 150.704C246.556 159.152 290.602 152.864 290.602 152.864L307.71 148.937Z" fill="#262C34"/>
<path d="M345.071 152.081C345.071 152.081 345.071 149.919 344.874 147.956C344.874 147.563 343.301 146.58 343.301 146.188L342.909 145.794C342.909 145.794 346.055 144.027 348.414 145.009C350.97 145.794 352.346 149.134 352.346 149.134C356.869 147.563 357.262 149.331 359.425 151.688C364.145 150.705 364.734 152.473 367.684 156.796C367.684 156.796 364.145 156.207 357.263 157.384C350.577 158.366 345.071 151.884 345.071 152.081Z" fill="#262C34"/>
<path d="M277.428 146.187C277.428 146.187 288.637 150.115 298.075 149.525C307.514 148.74 323.638 147.954 332.289 153.062C332.289 153.062 341.138 149.918 349.397 152.079C357.657 154.24 372.797 168.384 368.275 183.314C367.881 184.297 365.325 185.868 362.376 186.851C362.376 186.851 363.949 193.529 361.196 199.03C358.443 204.334 352.347 214.55 352.15 228.693C351.954 231.05 351.561 235.961 351.168 238.319C335.829 237.73 312.234 232.032 289.03 232.426C289.226 229.873 289.423 228.301 289.62 225.747H290.209C289.029 219.264 288.637 215.924 287.456 211.013C279.984 206.299 272.118 200.799 265.434 190.386C258.944 179.974 277.428 146.187 277.428 146.187ZM353.33 252.267C353.33 252.267 365.522 295.879 351.168 314.149C351.168 314.149 353.33 322.595 348.414 331.632C347.627 335.56 346.644 339.097 346.055 343.025C343.498 359.33 339.172 366.206 337.992 392.333L326.193 392.137C326.193 392.137 324.816 373.278 320.687 363.259C318.329 357.563 309.085 349.901 309.48 342.24C309.873 336.346 311.053 331.435 321.082 323.577C321.868 312.184 310.463 301.378 312.234 258.946L353.33 252.267Z" fill="#262C34"/>
<path d="M349.791 250.499C352.937 270.536 360.212 300.2 347.038 314.736C347.815 318.422 347.881 322.222 347.233 325.933C346.841 328.29 346.054 330.844 345.071 333.594C343.105 338.309 342.318 345.185 341.728 349.31C339.172 365.615 339.172 366.402 337.992 392.528L326.193 392.332C326.193 392.332 324.816 373.473 320.687 363.455C318.329 357.758 313.412 352.847 313.019 345.186C312.626 339.293 316.755 327.506 326.588 327.899C325.998 304.129 314.986 308.843 312.036 259.339L349.791 250.499ZM277.428 146.187C277.428 146.187 281.754 147.562 286.473 147.954C291.193 148.347 296.306 147.954 300.827 147.758C310.266 146.973 323.638 145.99 332.486 151.098C332.486 151.098 337.402 149.525 342.712 149.918C345.071 150.115 347.431 152.079 350.184 152.865C358.836 155.026 367.094 169.366 363.357 182.332C362.964 183.315 360.211 182.332 357.065 183.315C357.654 186.066 358.049 192.352 354.902 199.031C351.559 205.711 347.233 214.354 348.019 230.856C327.373 229.873 318.131 228.499 297.68 227.516C295.911 220.247 294.73 212.979 294.534 209.246C297.287 207.871 298.859 206.693 301.023 204.335C295.125 205.318 292.764 204.924 289.224 202.96C285.685 200.995 279.393 194.709 276.247 190.584C275.854 190.191 273.691 196.673 268.776 196.87C267.005 194.316 274.477 187.047 273.101 184.298C268.186 174.278 277.428 146.187 277.428 146.187Z" fill="#F0EFEF"/>
<path d="M351.362 234.194C351.362 234.194 351.755 241.266 351.755 243.034C351.755 244.999 353.329 250.892 353.525 253.642C351.362 257.375 341.924 265.822 324.816 268.965C307.906 272.501 285.489 245.982 285.489 245.982C286.079 243.428 288.046 235.962 289.422 232.034C289.619 231.641 290.012 230.658 290.012 230.266C291.783 227.712 351.362 234.194 351.362 234.194Z" fill="#262C34"/>
<path d="M347.038 234.784C347.038 239.695 347.823 243.232 348.414 246.375C349.397 252.072 350.97 255.804 350.97 259.537C350.97 270.93 336.025 268.965 323.44 269.359C306.529 272.895 292.175 246.375 292.175 246.375C293.354 241.856 294.141 236.75 295.911 232.427C296.107 230.07 296.501 227.123 296.697 225.748C320.686 225.748 337.597 227.123 347.43 228.104C347.823 230.266 347.43 233.998 347.038 234.784Z" fill="#F0EFEF"/>
<path d="M328.159 260.125C328.159 260.125 317.738 236.944 286.472 243.821C279.001 264.84 268.972 289.003 275.461 315.13C268.972 323.971 261.5 328.883 261.5 345.187C261.5 361.492 262.286 364.242 262.286 364.242L285.292 365.422C285.292 365.422 292.765 355.796 295.714 345.384C296.501 342.437 297.287 337.133 296.697 331.044C297.483 329.865 300.826 327.116 301.22 321.811C301.22 321.811 312.428 315.918 318.918 301.578C325.014 288.61 323.441 277.413 328.159 260.125Z" fill="#262C34"/>
<path d="M328.159 260.125C327.571 257.965 319.705 236.749 290.602 243.034C273.495 288.61 279.788 307.469 282.343 315.719C270.741 330.452 265.433 333.595 267.793 363.455H283.131C290.209 352.258 291.783 348.132 292.176 333.399C292.176 332.81 290.013 334.578 288.44 336.542C289.62 330.453 292.962 329.274 295.519 325.542C296.698 323.97 297.681 321.613 297.681 318.469C311.446 309.237 316.558 297.646 319.508 285.663C321.868 277.413 324.62 263.857 328.159 260.125Z" fill="#F0EFEF"/>
<path d="M279.591 228.498C279.591 228.498 284.901 228.693 289.62 230.265C294.143 231.836 294.143 232.818 295.913 234.784C297.682 236.749 302.008 239.695 301.222 242.641C300.828 244.213 299.846 244.606 298.469 245.981C297.879 246.57 293.552 251.285 292.57 251.874C291.98 252.266 291.193 252.857 290.603 253.249L287.654 255.214C285.687 256.197 284.311 256.786 282.148 256.589C282.148 256.589 277.232 256.392 274.085 253.053C274.085 253.053 273.692 251.481 274.479 250.696C274.479 250.696 270.349 247.16 269.17 244.803C267.989 242.446 267.989 239.107 268.777 237.339C269.17 235.569 276.838 230.658 279.591 228.498ZM284.508 419.639L283.918 424.551C283.918 424.551 282.148 426.712 268.974 426.516C255.602 426.319 252.063 422.194 250.883 420.033L250.097 414.925C250.097 414.925 252.654 411.193 253.244 411.193C257.569 411.585 272.318 417.479 282.543 419.05C283.524 419.05 283.72 419.442 284.508 419.639ZM313.019 409.62C313.019 411.781 312.822 411.781 312.822 413.942C315.182 415.71 321.082 416.693 332.289 416.495C348.61 416.103 363.751 421.407 382.235 418.263L382.432 414.727L380.662 414.531L315.182 409.227L313.019 409.62Z" fill="#262C34"/>
<path d="M327.374 416.496H332.289C342.909 416.103 352.937 418.461 363.751 419.05C369.454 418.853 376.533 417.478 375.943 413.353L320.099 408.638C316.755 412.37 319.311 415.513 327.374 416.496ZM263.27 333.792C265.04 334.971 277.035 342.043 296.502 341.061C296.108 344.793 296.305 352.062 287.653 364.83C283.327 371.117 279.59 382.118 278.804 396.066C279.001 399.209 280.771 401.959 278.411 406.085C279.197 408.638 282.343 413.745 283.917 416.889C285.489 420.033 286.276 423.568 275.854 423.765C265.236 423.961 248.128 422.782 250.488 414.532C251.669 410.211 255.011 405.692 255.405 403.923C255.798 402.156 255.798 396.852 259.14 393.315C262.09 383.493 261.107 374.064 260.518 365.224C259.534 355.99 259.337 341.257 263.27 333.792ZM281.557 173.689C295.519 155.026 283.72 140.097 261.305 144.614C252.259 146.382 243.214 152.669 242.623 164.063C239.674 164.455 232.989 164.848 229.646 177.028C227.09 186.457 225.714 188.225 221.19 192.939C218.241 196.279 221.387 203.155 223.549 208.067C230.825 224.961 253.242 226.532 268.383 239.301C273.495 237.926 278.804 232.23 280.378 228.498C267.596 213.37 270.348 207.477 265.236 199.62C270.742 197.654 283.327 189.994 281.557 173.689Z" fill="#262C34"/>
<path d="M278.804 172.511C279.59 171.331 280.967 168.778 281.557 167.795C281.754 167.599 283.917 171.331 284.114 171.135C289.422 162.491 290.799 149.918 284.703 148.74C283.326 148.543 280.771 147.955 278.607 147.168C274.675 145.792 271.136 145.792 264.843 146.972C256.191 148.543 247.539 154.829 247.539 163.866C247.539 164.455 253.634 166.223 255.404 173.492C252.454 169.366 247.341 164.848 241.246 168.777C234.756 172.902 238.1 182.332 229.448 192.154C226.498 195.493 226.891 199.423 230.037 207.28C235.149 219.657 259.336 226.336 272.511 238.122C275.657 236.747 277.819 233.604 279.393 231.247C270.544 222.014 267.004 213.37 264.449 207.083C261.303 199.815 257.763 195.69 250.88 190.188C254.42 191.563 257.174 192.939 258.745 194.117C260.515 195.296 263.071 195.492 265.432 194.706C273.888 191.762 278.411 179.974 278.804 172.511Z" fill="#F0EFEF"/>
<path d="M364.341 175.654C363.751 183.119 358.246 179.386 355.296 178.011C349.397 175.457 343.497 173.689 336.615 173.689C329.733 173.689 320.884 174.278 313.216 176.243C302.598 179.189 299.451 178.994 294.732 176.636C290.013 174.082 281.755 167.795 281.755 167.795C281.755 167.795 281.558 169.76 283.525 172.314C286.08 175.457 291.784 179.386 299.452 181.939C303.188 183.119 306.138 182.332 309.481 181.547C326.982 177.225 345.465 176.439 360.999 185.868C361.786 186.261 364.539 185.082 365.719 183.314C367.29 180.761 364.341 175.654 364.341 175.654Z" fill="#262C34"/>
<path d="M274.872 250.499C276.445 251.482 278.411 252.071 280.574 253.839C280.574 253.839 278.804 253.839 278.018 253.054C277.035 252.465 275.068 250.697 274.872 250.499Z" fill="#0A1825"/>
<path d="M331.7 94.7176C331.11 92.9498 326.783 89.8057 316.755 89.8057C305.94 89.8057 302.794 93.1456 302.598 94.9134C302.598 95.5027 301.811 101.79 301.614 104.343C301.614 104.343 301.614 107.486 301.81 112.2C302.007 115.343 302.794 117.111 303.187 121.237C303.58 125.558 304.76 128.308 306.923 131.845C307.907 132.433 308.692 133.024 309.676 133.22C313.609 134.005 320.491 134.202 324.227 133.22C326.39 132.631 329.143 128.899 329.733 125.559C330.519 121.434 331.306 118.487 331.503 115.934C331.896 113.381 332.092 107.683 332.288 106.111C332.879 101.79 331.896 95.1101 331.7 94.7176Z" fill="#F0EFEF"/>
<path d="M311.053 337.525C311.053 337.525 321.475 342.043 347.235 338.114C347.235 338.114 339.959 374.653 343.303 392.922C343.303 392.922 346.645 397.637 371.421 406.673C371.421 406.673 382.432 409.424 382.04 414.925C382.04 414.925 382.433 416.104 369.062 415.71C355.691 415.317 343.106 412.959 334.257 412.959C325.408 412.959 315.97 413.352 314.397 410.799C312.627 408.442 314.79 402.351 317.346 398.815C320.1 395.083 319.313 392.332 319.117 385.654C318.525 368.17 305.153 350.097 311.053 337.525Z" fill="#262C34"/>
<path opacity="0.3" d="M315.576 401.566C318.918 403.137 323.835 404.317 327.571 404.317C327.571 404.317 326.193 410.8 328.356 414.728C330.519 418.657 312.625 416.3 312.625 416.3L311.84 402.352L315.576 401.566ZM367.684 418.461C370.83 417.478 372.994 413.942 370.438 410.603C367.684 407.263 365.325 406.674 368.864 406.478C372.404 406.282 385.382 414.139 385.382 414.139L378.695 420.229L367.684 418.461ZM308.3 348.525C312.822 350.097 319.705 350.49 325.604 350.293C331.503 350.097 340.351 349.31 346.055 347.347C351.756 345.382 349.397 349.507 349.397 349.507L346.251 352.455C346.251 352.455 338.779 355.401 326.588 355.205C312.233 355.008 307.907 353.437 307.907 353.437L308.3 348.525ZM308.692 358.348C313.216 359.92 320.098 360.313 325.997 360.116C331.895 359.92 339.761 359.92 345.464 357.759C347.823 356.974 346.448 360.313 346.448 360.313L345.464 362.081C345.464 362.081 337.795 364.831 325.8 364.634C311.446 364.438 308.889 363.258 308.889 363.258L308.692 358.348Z" fill="#262C34"/>
<path d="M295.715 220.64C295.715 222.015 311.053 229.676 319.508 231.248C327.963 232.819 345.661 231.248 348.413 230.659L348.019 233.409C348.019 233.409 326.98 236.553 310.856 232.231C294.731 227.909 296.502 226.926 296.502 226.926L295.715 220.64Z" fill="#262C34"/>
<path d="M262.876 388.208C265.236 389.388 273.691 391.548 279.197 390.369C279.983 390.173 279.197 376.814 281.36 370.724C284.507 362.277 289.619 355.401 291.978 340.473C283.719 339.687 274.281 337.525 269.365 335.953C263.073 355.205 265.237 371.706 262.876 388.208ZM276.052 400.585C277.428 400.977 278.411 402.548 278.805 401.568C279.591 399.799 277.428 396.46 277.232 394.103V393.906C275.462 392.335 263.467 392.138 264.254 392.923C262.877 395.477 260.715 395.085 259.929 400.192C259.536 402.745 262.682 400.585 265.63 400.388C260.322 403.924 254.226 408.443 253.243 412.371C252.063 417.872 254.029 419.444 259.929 422.391C265.042 423.57 271.137 423.766 275.856 423.57C281.165 422.587 282.149 420.034 280.576 416.497C278.214 411.193 276.642 404.317 276.052 400.585Z" fill="#F0EFEF"/>
<path d="M278.214 145.4C284.704 149.133 293.749 148.151 297.091 147.954C297.878 147.954 305.744 146.579 306.137 146.775C306.923 146.971 306.923 147.561 306.923 147.561C306.923 147.561 303.974 149.132 297.288 149.524C290.996 149.917 283.524 149.524 279.395 147.561C274.478 145.4 278.214 145.4 278.214 145.4ZM345.071 149.133C346.251 149.918 353.92 152.865 357.263 156.401C360.212 159.545 358.64 159.348 358.049 158.562C357.263 157.579 351.167 153.455 348.807 152.473C346.448 151.491 343.498 149.722 343.498 149.33C343.498 148.937 345.071 149.133 345.071 149.133Z" fill="#262C34"/>
<path d="M277.23 230.658C282.933 230.266 288.832 231.641 292.569 235.569C294.535 237.534 297.681 239.694 297.288 241.659C297.288 242.248 296.108 243.82 295.126 244.999C294.536 245.784 292.766 247.551 292.176 248.142C291.39 248.731 288.637 250.892 288.047 251.285C287.457 251.678 286.67 252.661 286.08 252.857C284.115 253.84 281.951 253.054 279.985 252.072C278.019 251.089 280.379 250.892 278.215 249.321C272.907 245.589 269.956 243.034 272.12 235.766C272.316 234.391 274.478 232.818 277.23 230.658Z" fill="#F0EFEF"/>
<path opacity="0.4" d="M227.089 185.672C209.392 192.745 164.361 215.14 151.581 222.016C162.199 228.694 167.115 244.803 168.688 261.108C168.884 262.68 169.081 264.055 169.278 265.626C169.474 267.002 169.671 267.983 169.867 268.574C169.867 268.77 169.867 269.163 170.064 269.359C181.666 237.731 223.155 204.335 224.729 201.781C225.515 200.603 223.745 195.495 226.498 190.585C230.039 184.297 236.922 181.546 227.089 185.672ZM269.17 333.989C278.214 315.917 278.411 298.629 278.214 278.395C278.214 269.947 284.31 257.964 281.164 261.304C269.365 274.464 239.674 299.218 218.241 300.592C248.326 299.611 260.124 314.737 269.17 333.989Z" fill="#262C34"/>
<path d="M134.276 238.712C145.484 230.658 203.492 199.817 217.454 195.494C231.414 190.976 227.088 185.671 227.088 185.671C227.088 185.671 170.457 210.031 136.636 231.051" fill="#262C34"/>
<path opacity="0.4" d="M299.451 181.94C294.928 180.172 291.389 185.477 292.569 190.584C293.749 195.692 304.367 201.388 303.777 220.051C303.384 235.374 300.041 241.66 300.041 241.66L292.569 232.231C292.569 232.231 291.389 211.014 288.832 207.871C286.277 204.728 278.214 199.031 275.068 196.085C271.922 193.137 278.607 189.209 278.214 183.708C277.821 178.404 281.557 167.796 281.557 167.796L299.451 181.94ZM326.784 265.625C326.391 280.358 329.734 302.165 331.11 312.577C332.486 322.988 334.256 323.774 331.11 328.489C327.963 333.008 323.834 340.473 323.834 340.473L310.266 339.293C310.266 339.293 321.081 325.542 321.67 322.988C322.26 320.435 316.164 300.987 316.164 300.987L326.784 265.625ZM300.631 128.114C303.385 134.203 306.727 136.953 312.036 138.722C315.182 139.901 327.57 141.473 332.486 135.971C334.649 133.418 333.272 126.542 333.272 126.542L322.064 135.578L306.923 132.828L305.153 128.31L300.631 128.114Z" fill="#262C34"/>
<path d="M301.81 141.668C306.923 145.008 319.705 148.151 323.244 148.74C326.783 149.525 332.485 145.008 335.239 143.829C338.189 142.454 343.301 141.668 349.2 146.972C349.79 147.562 347.823 150.116 347.823 150.116C347.626 149.919 346.447 149.919 344.873 149.133C343.301 148.348 341.924 147.758 339.564 147.954C329.732 149.133 328.159 152.473 319.508 150.507C310.856 148.542 308.692 146.971 300.238 147.364" stroke="#262C34" stroke-width="10.8638" stroke-miterlimit="10" stroke-linejoin="round"/>
<path d="M269.563 325.737C269.17 325.345 269.955 324.952 269.563 324.952C267.007 324.952 263.467 322.988 261.5 320.237C253.045 308.058 240.656 300.004 218.24 300.593C184.614 301.378 171.243 287.628 168.687 261.304C167.311 246.964 163.378 233.016 155.316 225.158L150.596 228.105C159.641 235.962 162.591 248.732 164.557 266.215C167.704 292.539 188.94 304.719 213.717 305.112C239.476 305.504 248.718 310.809 258.352 323.775C261.499 327.9 265.039 329.275 267.791 329.864L269.563 325.737Z" fill="#262C34"/>
<path opacity="0.4" d="M360.802 199.423C361.392 202.37 362.965 208.067 366.111 210.816C367.488 212.192 367.684 212.584 366.505 212.584C365.324 212.584 356.672 212.192 356.672 212.192L354.313 208.067L360.802 199.423Z" fill="#262C34"/>
</g>
<defs>
<clipPath id="clip0_711_144">
<rect width="512" height="512" fill="white"/>
</clipPath>
</defs>
</svg>
