<svg width="512" height="512" viewBox="0 0 512 512" fill="none" xmlns="http://www.w3.org/2000/svg">
<g clip-path="url(#clip0_729_9)">
<path d="M0 0V512H512V0H0ZM482 482H30V30H482V482Z" fill="#262C34"/>
<path d="M115.172 279.899V257.399L205.172 217.768V243.656L143.553 268.393L144.384 267.051V270.247L143.553 268.905L205.172 293.642V319.53L115.172 279.899ZM289.227 183.955L247.04 340.688H223.581L265.768 183.955H289.227ZM397.652 279.899L307.652 319.53V293.642L369.272 268.905L368.441 270.247V267.051L369.272 268.393L307.652 243.656V217.768L397.652 257.399V279.899Z" fill="black"/>
</g>
<defs>
<clipPath id="clip0_729_9">
<rect width="512" height="512" fill="white"/>
</clipPath>
</defs>
</svg>
