<svg width="512" height="512" viewBox="0 0 512 512" fill="none" xmlns="http://www.w3.org/2000/svg">
<g clip-path="url(#clip0_763_26)">
<path d="M0 0V512H512V0H0ZM482 482H30V30H482V482Z" fill="#262C34"/>
<path d="M120 120V392H392V120H120ZM263.463 324.941L251.914 288.787H211.409L200.427 324.941H176.4L217.28 197.367H246.996L288.447 324.941H263.463ZM324.051 324.941H300.574V232.761H324.051V324.941ZM312.123 219.518C304.359 219.518 299.254 214.027 299.254 207.023C299.254 199.826 304.558 194.341 312.315 194.341C320.266 194.341 325.184 199.826 325.377 207.023C325.371 214.027 320.266 219.518 312.123 219.518ZM231.475 215.92H231.095C229.202 223.303 227.31 232.2 225.037 239.771L215.2 271.187H247.942L237.912 239.771C235.453 232.007 233.367 223.298 231.475 215.92Z" fill="#262C34"/>
</g>
<defs>
<clipPath id="clip0_763_26">
<rect width="512" height="512" fill="white"/>
</clipPath>
</defs>
</svg>
