<svg width="512" height="512" viewBox="0 0 512 512" fill="none" xmlns="http://www.w3.org/2000/svg">
<g clip-path="url(#clip0_711_148)">
<path d="M0 0V512H512V0H0ZM482 482H30V30H482V482Z" fill="#262C34"/>
<g clip-path="url(#clip1_711_148)">
<path fill-rule="evenodd" clip-rule="evenodd" d="M394 118H117V395H394V118ZM336.652 295.786C361.06 305.686 369.302 316.297 371.329 328.936C373.278 339.811 370.855 346.867 370.487 347.921C361.481 378.728 311.269 379.728 291.205 359.375C290.595 358.686 290.019 358.044 289.47 357.434C286.203 353.801 283.943 351.286 281.778 346.552C292.44 340.418 292.442 340.417 302.809 334.417L302.816 334.413C308.451 343.076 313.665 347.842 323.038 349.79C335.757 351.344 348.553 346.973 345.683 333.465C343.973 327.069 335.493 323.478 325.604 319.291C318.436 316.256 310.528 312.908 303.922 307.951C287.966 297.234 284.227 271.193 297.34 256.316C301.711 250.813 309.162 246.705 316.982 244.73C318.332 244.56 319.687 244.383 321.043 244.206C322.412 244.028 323.782 243.849 325.145 243.677C340.812 243.361 350.607 247.495 357.795 255.526C359.796 257.553 361.429 259.739 364.483 264.479C362.761 265.576 361.395 266.445 360.207 267.2C355.637 270.107 353.696 271.342 344.208 277.486C341.654 271.983 337.415 268.533 332.939 267.032C325.988 264.926 317.219 267.217 315.403 274.563C314.771 276.827 314.902 278.934 315.903 282.673C318.183 287.873 324.811 290.693 331.75 293.645C333.384 294.34 335.035 295.043 336.652 295.786ZM241.676 245.309H267.586C267.586 253.258 267.6 261.199 267.615 269.133C267.644 284.984 267.674 300.812 267.586 316.64C267.594 318.789 267.628 320.907 267.661 322.993C267.856 335.037 268.032 345.971 263.004 355.24C258.923 363.535 251.129 368.985 242.098 371.618C228.221 374.804 214.951 372.987 205.077 367.063C198.467 363.008 193.307 356.768 189.805 349.579C193.316 347.436 196.82 345.286 200.324 343.136C203.837 340.981 207.35 338.826 210.869 336.677C211.034 336.748 211.49 337.549 212.109 338.634C212.185 338.768 212.263 338.906 212.344 339.047C215.03 343.549 217.347 346.735 221.902 348.973C226.378 350.501 236.2 351.475 239.991 343.602C241.84 340.409 241.745 331.452 241.63 320.727C241.601 318.008 241.571 315.176 241.571 312.295C241.571 301.104 241.598 289.953 241.624 278.802C241.65 267.651 241.676 256.5 241.676 245.309Z" fill="#262C34"/>
</g>
</g>
<defs>
<clipPath id="clip0_711_148">
<rect width="512" height="512" fill="white"/>
</clipPath>
<clipPath id="clip1_711_148">
<rect width="277" height="277" fill="white" transform="translate(117 118)"/>
</clipPath>
</defs>
</svg>
