<svg width="512" height="512" viewBox="0 0 512 512" fill="none" xmlns="http://www.w3.org/2000/svg">
<g clip-path="url(#clip0_729_24)">
<path d="M0 0V512H512V0H0ZM482 482H30V30H482V482Z" fill="#262C34"/>
<path d="M387.341 286.801C387.341 277.092 379.961 269.189 370.855 269.189H239.177C230.07 269.189 222.691 277.092 222.691 286.801C222.691 296.509 230.057 304.412 239.177 304.412H370.855C379.961 304.425 387.341 296.522 387.341 286.801Z" fill="#262C34"/>
<path d="M145.05 336.942L201.481 394.002C214.212 406.811 231.81 413 251.24 413C270.67 413 288.268 406.301 301.025 393.452L334.887 358.95C341.559 352.224 341.324 341.09 334.376 334.09C327.429 327.09 316.386 326.854 309.726 333.58L274.713 367.69C268.668 373.8 260.294 376.351 251.044 376.351C241.793 376.351 233.433 373.8 227.362 367.69L171.126 310.604C165.068 304.494 162.02 295.557 162.02 286.228C162.02 276.899 165.068 268.473 171.126 262.363L227.192 205.055C233.25 198.945 241.793 196.616 251.031 196.616C260.268 196.616 268.642 199.167 274.7 205.277L309.713 239.374C316.386 246.113 327.429 245.877 334.376 238.877C341.324 231.864 341.559 220.73 334.887 214.004L301.025 179.515C292.533 171.062 281.778 164.913 269.728 162.113L269.283 162.021L301.3 129.272C307.999 122.547 307.763 111.399 300.816 104.399C293.868 97.3991 282.812 97.1767 276.126 103.902L145.05 236.051C132.319 248.9 125.659 266.628 125.659 286.228C125.659 305.828 132.319 324.12 145.05 336.942Z" fill="#262C34"/>
</g>
<defs>
<clipPath id="clip0_729_24">
<rect width="512" height="512" fill="white"/>
</clipPath>
</defs>
</svg>
