<svg width="512" height="512" viewBox="0 0 512 512" fill="none" xmlns="http://www.w3.org/2000/svg">
<g clip-path="url(#clip0_675_19)">
<path d="M0 0V512H512V0H0ZM482 482H30V30H482V482Z" fill="#262C34"/>
<path d="M184.4 203.4H134.5V363.1H184.4V203.4Z" fill="#262C34"/>
<path d="M270.9 363.1V276.8C270.9 271.9 270.7 267.1 272.1 263.7C275.9 254.1 284.2 244.1 299.1 244.1C318.6 244.1 327.4 258.9 327.4 280.5V363.1H384V274.3C384 224.9 356.2 201.9 320.7 201.9C292.1 201.9 274.2 217.5 270.9 228.5V203.4H214.8C215.5 216.7 214.8 363.1 214.8 363.1H270.9Z" fill="#262C34"/>
<path d="M157.7 183.4H158.1C176.9 183.4 188.6 171.1 188.5 155.7C188.1 139.9 176.8 128 158.4 128C140 128 127.9 139.9 127.9 155.7C127.9 171.2 139.6 183.4 157.7 183.4Z" fill="#262C34"/>
</g>
<defs>
<clipPath id="clip0_675_19">
<rect width="512" height="512" fill="white"/>
</clipPath>
</defs>
</svg>
