<svg width="512" height="512" viewBox="0 0 512 512" fill="none" xmlns="http://www.w3.org/2000/svg">
<g clip-path="url(#clip0_710_57)">
<path d="M0 0V512H512V0H0ZM482 482H30V30H482V482Z" fill="#262C34"/>
<path d="M284.334 127.004C270.401 110.471 258.404 93.681 255.953 90.1937C255.695 89.9354 255.308 89.9354 255.05 90.1937C252.599 93.681 240.602 110.471 226.67 127.004C107.085 279.538 245.504 382.478 245.504 382.478L246.665 383.253C247.697 399.139 250.277 422 250.277 422H255.437H260.597C260.597 422 263.177 399.268 264.209 383.253L265.37 382.349C265.499 382.478 403.919 279.538 284.334 127.004ZM255.437 380.153C255.437 380.153 249.245 374.857 247.568 372.146V371.886L255.05 205.79C255.05 205.273 255.824 205.273 255.824 205.79L263.306 371.886V372.146C261.629 374.857 255.437 380.153 255.437 380.153Z" fill="#262C34"/>
</g>
<defs>
<clipPath id="clip0_710_57">
<rect width="512" height="512" fill="white"/>
</clipPath>
</defs>
</svg>
