<svg width="512" height="512" viewBox="0 0 512 512" fill="none" xmlns="http://www.w3.org/2000/svg">
<g clip-path="url(#clip0_709_12)">
<path d="M0 0V512H512V0H0ZM482 482H30V30H482V482Z" fill="#262C34"/>
<path d="M246.176 106.081C245.531 106.139 243.478 106.345 241.631 106.491C199.021 110.332 159.109 133.32 133.83 168.652C119.754 188.297 110.751 210.581 107.349 234.185C106.147 242.424 106 244.858 106 256.029C106 267.201 106.147 269.634 107.349 277.874C115.501 334.2 155.589 381.524 209.959 399.058C219.695 402.196 229.959 404.336 241.631 405.626C246.176 406.125 265.824 406.125 270.369 405.626C290.516 403.398 307.584 398.413 324.416 389.822C326.997 388.503 327.496 388.151 327.144 387.857C326.909 387.682 315.912 372.933 302.716 355.106L278.727 322.706L248.669 278.226C232.129 253.772 218.522 233.775 218.405 233.775C218.287 233.745 218.17 253.508 218.111 277.639C218.023 319.891 217.994 321.592 217.466 322.588C216.704 324.025 216.117 324.612 214.886 325.257C213.947 325.726 213.126 325.814 208.698 325.814H203.625L202.276 324.964C201.396 324.406 200.751 323.673 200.311 322.823L199.695 321.504L199.754 262.715L199.842 203.896L200.751 202.753C201.22 202.137 202.217 201.345 202.921 200.964C204.123 200.378 204.592 200.319 209.666 200.319C215.648 200.319 216.645 200.554 218.199 202.254C218.639 202.723 234.915 227.236 254.387 256.762C273.859 286.289 300.487 326.605 313.566 346.397L337.32 382.374L338.522 381.583C349.167 374.663 360.428 364.811 369.343 354.549C388.317 332.763 400.545 306.198 404.651 277.874C405.853 269.634 406 267.201 406 256.029C406 244.858 405.853 242.424 404.651 234.185C396.499 177.859 356.411 130.535 302.041 113.001C292.452 109.892 282.246 107.752 270.809 106.462C267.994 106.169 248.61 105.846 246.176 106.081ZM307.584 196.801C308.991 197.504 310.135 198.853 310.545 200.26C310.78 201.023 310.839 217.325 310.78 254.065L310.692 306.784L301.396 292.534L292.07 278.284V239.961C292.07 215.185 292.188 201.257 292.364 200.583C292.833 198.941 293.859 197.651 295.267 196.888C296.469 196.273 296.909 196.214 301.513 196.214C305.853 196.214 306.616 196.273 307.584 196.801Z" fill="#262C34"/>
</g>
<defs>
<clipPath id="clip0_709_12">
<rect width="512" height="512" fill="white"/>
</clipPath>
</defs>
</svg>
