<svg width="512" height="512" viewBox="0 0 512 512" fill="none" xmlns="http://www.w3.org/2000/svg">
<g clip-path="url(#clip0_711_218)">
<path d="M0 0V512H512V0H0ZM482 482H30V30H482V482Z" fill="#262C34"/>
<path d="M243.614 102.35C251.4 97.8934 261.541 97.8733 269.32 102.35C308.456 124.464 347.604 146.543 386.733 168.67C394.093 172.815 399.015 181.006 398.94 189.486V322.531C398.995 331.362 393.586 339.748 385.821 343.8C346.814 365.792 307.827 387.811 268.827 409.802C260.88 414.346 250.536 413.996 242.837 409.08C231.143 402.301 219.429 395.555 207.733 388.782C205.343 387.358 202.649 386.224 200.962 383.907C202.454 381.896 205.121 381.645 207.288 380.767C212.169 379.215 216.653 376.724 221.137 374.306C222.271 373.53 223.656 373.827 224.743 374.522C234.743 380.255 244.655 386.155 254.688 391.834C256.829 393.07 258.996 391.429 260.825 390.41C299.103 368.776 337.428 347.223 375.699 325.583C377.118 324.9 377.901 323.395 377.786 321.842C377.813 277.953 377.793 234.057 377.8 190.168C377.962 188.406 376.942 186.785 375.348 186.064C336.477 164.173 297.625 142.248 258.76 120.352C258.087 119.889 257.289 119.64 256.472 119.639C255.655 119.638 254.856 119.884 254.181 120.345C215.316 142.248 176.472 164.193 137.607 186.083C136.018 186.806 134.953 188.399 135.142 190.168C135.148 234.057 135.142 277.953 135.142 321.849C135.074 322.606 135.241 323.367 135.619 324.027C135.997 324.688 136.568 325.216 137.255 325.542C147.627 331.424 158.011 337.264 168.389 343.125C174.236 346.272 181.415 348.141 187.856 345.73C193.54 343.692 197.525 337.891 197.417 331.855C197.47 288.223 197.39 244.584 197.457 200.958C197.315 199.021 199.152 197.421 201.035 197.603C206.019 197.569 211.009 197.536 215.992 197.616C218.072 197.569 219.503 199.655 219.246 201.607C219.226 245.515 219.3 289.425 219.213 333.334C219.226 345.036 214.418 357.769 203.594 363.495C190.259 370.403 173.778 368.938 160.604 362.314C149.199 356.622 138.316 349.904 127.113 343.806C119.329 339.776 113.946 331.357 114.001 322.532V189.486C113.919 180.83 119.038 172.491 126.627 168.406C165.627 146.396 204.621 124.37 243.614 102.35Z" fill="#262C34"/>
<path d="M277.638 194.511C294.648 193.416 312.858 193.862 328.164 202.242C340.015 208.663 346.585 222.14 346.794 235.306C346.463 237.082 344.607 238.062 342.911 237.94C337.976 237.933 333.04 238.007 328.105 237.906C326.011 237.987 324.795 236.056 324.532 234.206C323.114 227.906 319.678 221.667 313.749 218.629C304.647 214.071 294.093 214.301 284.168 214.396C276.923 214.78 269.131 215.408 262.993 219.669C258.28 222.896 256.849 229.411 258.531 234.659C260.116 238.426 264.466 239.642 268.024 240.762C288.523 246.124 310.245 245.59 330.353 252.646C338.678 255.522 346.821 261.114 349.671 269.83C353.398 281.512 351.764 295.475 343.453 304.853C336.713 312.571 326.896 316.771 317.105 319.053C304.08 321.957 290.563 322.031 277.335 320.741C264.897 319.323 251.954 316.056 242.352 307.581C234.141 300.452 230.131 289.343 230.529 278.622C230.624 276.811 232.427 275.549 234.161 275.698C239.131 275.657 244.101 275.644 249.071 275.704C251.056 275.562 252.528 277.278 252.629 279.149C253.546 285.151 255.802 291.45 261.036 295.009C271.136 301.525 283.81 301.079 295.376 301.261C304.958 300.836 315.714 300.708 323.533 294.375C327.659 290.763 328.881 284.719 327.766 279.52C326.558 275.131 321.966 273.085 318.023 271.748C297.787 265.346 275.822 267.669 255.782 260.43C247.646 257.555 239.779 252.119 236.653 243.761C232.292 231.931 234.29 217.299 243.473 208.237C252.426 199.223 265.35 195.753 277.638 194.511Z" fill="#262C34"/>
</g>
<defs>
<clipPath id="clip0_711_218">
<rect width="512" height="512" fill="white"/>
</clipPath>
</defs>
</svg>
