<svg width="512" height="512" viewBox="0 0 512 512" fill="none" xmlns="http://www.w3.org/2000/svg">
<g clip-path="url(#clip0_711_95)">
<path d="M0 0V512H512V0H0ZM482 482H30V30H482V482Z" fill="#262C34"/>
<path d="M191.968 152.639C217.54 104.537 286.044 102.013 314.979 148.107C337.401 183.824 323.144 228.158 290.228 247.244L268.851 210.277C281.946 202.685 287.619 185.048 278.698 170.838C267.187 152.501 239.935 153.505 229.761 172.641C222.233 186.801 228.199 203.1 240.596 210.296L219.204 247.29C188.042 229.201 173.045 188.233 191.968 152.639ZM203.402 325.999C203.376 340.344 192.197 353.709 176.125 354.301C154.44 355.1 139.973 332.054 150.146 312.917C158.013 298.122 176.085 294.176 189.201 301.619L210.633 264.556C177.656 245.767 132.146 255.684 112.354 292.915C86.781 341.017 123.146 398.946 177.653 396.937C217.977 395.452 246.05 361.98 246.22 325.999H203.402ZM371.323 264.719L349.947 301.685C363.086 309.258 368.791 326.93 359.856 341.162C348.345 359.499 321.092 358.495 310.919 339.359C303.378 325.175 309.377 308.845 321.817 301.668L300.424 264.674C269.22 282.744 254.19 323.744 273.126 359.361C298.698 407.463 367.202 409.987 396.137 363.893C418.573 328.153 404.284 283.785 371.323 264.719Z" fill="#262C34"/>
</g>
<defs>
<clipPath id="clip0_711_95">
<rect width="512" height="512" fill="white"/>
</clipPath>
</defs>
</svg>
