<svg width="512" height="512" viewBox="0 0 512 512" fill="none" xmlns="http://www.w3.org/2000/svg">
<g clip-path="url(#clip0_710_64)">
<path d="M0 0V512H512V0H0ZM482 482H30V30H482V482Z" fill="#262C34"/>
<path fill-rule="evenodd" clip-rule="evenodd" d="M406 256.037C406 236.101 381.122 217.219 342.963 205.488C351.776 166.475 347.846 135.445 330.609 125.502C326.63 123.176 321.991 122.073 316.913 122.073V135.764C319.721 135.764 321.991 136.327 323.896 137.356C332.221 142.131 335.81 160.352 333.002 183.79C332.318 189.545 331.22 195.619 329.877 201.815C317.89 198.876 304.804 196.598 291.059 195.129C282.807 183.79 274.237 173.479 265.619 164.467C285.541 145.854 304.242 135.69 316.962 135.69V122C300.141 122 278.144 134.025 255.878 154.891C233.612 134.147 211.615 122.245 194.794 122.245V135.935C207.44 135.935 226.215 146.05 246.161 164.516C237.592 173.528 229.047 183.765 220.917 195.129C207.099 196.598 194.013 198.876 182.025 201.864C180.609 195.741 179.584 189.79 178.852 184.084C175.971 160.646 179.535 142.425 187.787 137.576C189.618 136.474 192.011 135.984 194.818 135.984V122.318C189.691 122.318 185.028 123.42 181 125.747C163.812 135.69 159.955 166.671 168.842 205.562C130.756 217.317 106 236.15 106 256.037C106 275.972 130.878 294.854 169.037 306.585C160.224 345.599 164.154 376.628 181.391 386.571C185.37 388.898 190.009 390 195.16 390C211.981 390 233.979 377.975 256.244 357.109C278.51 377.853 300.507 389.755 317.328 389.755C322.455 389.755 327.118 388.653 331.147 386.326C348.334 376.383 352.191 345.403 343.305 306.512C381.244 294.805 406 275.899 406 256.037ZM283.881 256.037C283.881 240.559 271.381 227.995 255.927 227.995C240.497 227.995 227.973 240.534 227.973 256.037C227.973 271.539 240.473 284.078 255.927 284.078C271.381 284.054 283.881 271.515 283.881 256.037ZM326.386 215.113C324.115 223.023 321.308 231.179 318.134 239.334C315.619 234.436 313.007 229.513 310.126 224.615C307.318 219.717 304.315 214.917 301.313 210.264C310.004 211.562 318.378 213.154 326.386 215.113ZM298.383 280.454C293.622 288.732 288.715 296.593 283.637 303.891C274.53 304.699 265.302 305.116 256 305.116C246.771 305.116 237.543 304.675 228.485 303.94C223.407 296.642 218.451 288.854 213.69 280.625C209.052 272.592 204.828 264.437 200.971 256.208C204.755 247.979 209.052 239.775 213.617 231.742C218.378 223.464 223.285 215.603 228.363 208.305C237.47 207.496 246.698 207.08 256 207.08C265.229 207.08 274.457 207.521 283.515 208.256C288.593 215.554 293.549 223.342 298.31 231.571C302.948 239.604 307.172 247.759 311.029 255.988C307.172 264.192 302.973 272.396 298.383 280.454ZM318.134 272.47C321.43 280.699 324.237 288.903 326.581 296.887C318.573 298.846 310.126 300.512 301.386 301.785C304.389 297.058 307.367 292.209 310.199 287.238C312.982 282.34 315.619 277.368 318.134 272.47ZM256.122 337.909C250.434 332.031 244.745 325.467 239.13 318.292C244.623 318.537 250.263 318.733 255.951 318.733C261.688 318.733 267.377 318.61 272.943 318.292C267.426 325.467 261.737 332.031 256.122 337.909ZM210.639 301.785C201.947 300.487 193.573 298.895 185.565 296.936C187.836 289.025 190.644 280.87 193.817 272.715C196.332 277.613 198.944 282.536 201.825 287.434C204.706 292.356 207.636 297.132 210.639 301.785ZM255.805 174.14C261.493 180.018 267.182 186.582 272.797 193.757C267.304 193.512 261.664 193.316 255.976 193.316C250.238 193.316 244.55 193.439 238.983 193.757C244.501 186.582 250.189 180.018 255.805 174.14ZM210.565 210.264C207.563 214.991 204.584 219.84 201.752 224.811C198.944 229.709 196.308 234.632 193.793 239.53C190.497 231.301 187.689 223.097 185.346 215.113C193.378 213.203 201.825 211.562 210.565 210.264ZM155.219 287.066C133.563 277.809 119.574 265.662 119.574 256.037C119.574 246.412 133.588 234.191 155.219 225.007C160.468 222.73 166.229 220.721 172.162 218.811C175.653 230.836 180.243 243.351 185.932 256.159C180.316 268.919 175.775 281.36 172.357 293.336C166.303 291.426 160.541 289.344 155.219 287.066ZM188.129 374.718C179.804 369.942 176.215 351.721 179.022 328.284C179.706 322.529 180.805 316.455 182.147 310.259C194.135 313.198 207.221 315.475 220.966 316.945C229.218 328.284 237.787 338.594 246.405 347.607C226.459 366.195 207.758 376.383 195.038 376.383C192.279 376.31 189.96 375.771 188.129 374.718ZM333.173 327.99C336.054 351.427 332.489 369.648 324.237 374.497C322.406 375.6 320.014 376.089 317.206 376.089C304.56 376.089 285.785 365.975 265.839 347.509C274.408 338.496 282.953 328.259 291.083 316.896C304.901 315.426 317.987 313.149 329.975 310.136C331.391 316.332 332.489 322.284 333.173 327.99ZM356.708 287.066C351.459 289.344 345.697 291.352 339.765 293.262C336.273 281.238 331.684 268.723 325.995 255.914C331.61 243.155 336.151 230.714 339.569 218.738C345.624 220.648 351.361 222.73 356.757 224.983C378.412 234.24 392.401 246.387 392.401 256.012C392.353 265.662 378.363 277.858 356.708 287.066Z" fill="#262C34"/>
</g>
<defs>
<clipPath id="clip0_710_64">
<rect width="512" height="512" fill="white"/>
</clipPath>
</defs>
</svg>
