<svg width="512" height="512" viewBox="0 0 512 512" fill="none" xmlns="http://www.w3.org/2000/svg">
<g clip-path="url(#clip0_711_201)">
<path d="M0 0V512H512V0H0ZM482 482H30V30H482V482Z" fill="#262C34"/>
<g clip-path="url(#clip1_711_201)">
<path fill-rule="evenodd" clip-rule="evenodd" d="M119 121V257V393H391V121H119ZM178.636 268.56V257.476L178.84 257.544V246.392L226.44 246.188C252.62 246.188 274.176 246.256 274.176 246.46C274.448 246.596 274.448 251.56 274.448 257.68V268.56H239.088V369.2H213.996V268.56H178.636ZM354.552 255.844C349.792 250.88 344.488 247.752 337.552 246.12L337.688 245.984C332.996 244.76 321.776 244.352 317.016 245.304C302.328 248.024 292.06 257.544 289.136 271.144C288.184 275.02 288.524 284.676 289.544 288.62C290.904 293.176 293.828 298.684 297.024 302.22C302.6 308.068 308.584 311.876 322.66 317.86C334.9 323.3 339.252 325.748 341.428 328.74C342.992 331.12 343.468 332.548 343.468 335.676C343.468 339.076 342.38 341.524 339.864 343.836C334.016 349.14 322.184 349.752 313.344 345.196C310.42 343.564 305.388 338.804 303.144 335.268L301.376 332.888L293.692 337.376L283.492 343.292L280.908 344.924C280.636 345.4 285.464 352.676 287.98 355.396C294.372 362.4 304.776 367.84 315.656 369.88C320.756 370.764 331.636 370.9 336.396 370.084C351.56 367.568 362.168 359.884 366.52 348.528C370.396 338.124 369.104 324.252 363.324 315.412C358.224 307.524 349.792 302.016 330.344 293.652C319.804 289.028 316.404 286.784 314.568 283.044C313.752 281.276 313.344 280.052 313.344 277.876C313.344 270.736 318.784 266.452 326.944 266.996C332.588 267.404 336.192 269.58 339.728 274.612C340.816 276.38 341.904 277.536 342.176 277.332C349.316 272.912 361.08 264.956 361.08 264.548C360.808 263.324 357.068 258.564 354.552 255.844Z" fill="#262C34"/>
</g>
</g>
<defs>
<clipPath id="clip0_711_201">
<rect width="512" height="512" fill="white"/>
</clipPath>
<clipPath id="clip1_711_201">
<rect width="272" height="272" fill="white" transform="translate(119 121)"/>
</clipPath>
</defs>
</svg>
