<svg width="512" height="512" viewBox="0 0 512 512" fill="none" xmlns="http://www.w3.org/2000/svg">
<g clip-path="url(#clip0_711_89)">
<path d="M0 0V512H512V0H0ZM482 482H30V30H482V482Z" fill="#262C34"/>
<path fill-rule="evenodd" clip-rule="evenodd" d="M306.863 181.207C306.02 184.132 308.564 186.917 311.553 186.34L343.375 180.199C346.694 179.558 349.308 183.005 347.792 186.028L257.315 366.592L255.677 369.122C253.227 372.91 247.349 370.501 248.262 366.081L252.179 366.891C252.175 366.915 252.172 366.934 252.17 366.949C252.178 366.955 252.187 366.96 252.198 366.965C252.206 366.97 252.216 366.974 252.226 366.978C252.248 366.988 252.268 366.993 252.285 366.997C252.295 366.985 252.306 366.969 252.319 366.949L252.319 366.948L253.838 364.603L344.215 184.237L344.216 184.235C344.225 184.217 344.23 184.205 344.232 184.198C344.229 184.191 344.223 184.175 344.208 184.156C344.194 184.136 344.18 184.126 344.174 184.122C344.167 184.122 344.154 184.123 344.134 184.127L344.133 184.127L312.311 190.268L312.31 190.268C306.389 191.41 301.348 185.894 303.02 180.099L303.02 180.099L309.826 156.504L314.22 155.703L306.863 181.207ZM206.978 157.13L114.068 140.524C107.644 139.375 102.797 146.241 106.03 151.909L250.42 405.117C253.387 410.319 260.897 410.288 263.821 405.061L405.404 151.885C408.58 146.206 403.71 139.393 397.308 140.559L314.22 155.703L327.632 109.21C328.476 106.278 325.921 103.492 322.928 104.079L211.895 125.836C211.008 126.009 210.204 126.473 209.609 127.154C209.014 127.835 208.662 128.694 208.609 129.596L206.978 157.13ZM206.978 157.13L210.944 157.839L205.772 245.188L205.772 245.188C205.771 245.2 205.773 245.212 205.778 245.223C205.783 245.234 205.79 245.244 205.799 245.252C205.808 245.26 205.819 245.265 205.831 245.268C205.843 245.271 205.855 245.271 205.867 245.268L236.78 238.134C242.508 236.812 247.688 241.857 246.509 247.62L246.509 247.622L237.325 292.595L237.34 292.659C237.34 292.659 237.34 292.659 237.34 292.659L237.325 292.595C237.324 292.603 237.323 292.61 237.322 292.615C237.322 292.619 237.321 292.622 237.321 292.624C237.321 292.628 237.321 292.631 237.321 292.632C237.322 292.635 237.328 292.645 237.34 292.659L238.244 296.6C235.415 297.209 232.812 294.705 233.406 291.795L242.59 246.82C243.185 243.912 240.572 241.364 237.679 242.032L206.766 249.166C206.148 249.308 205.506 249.305 204.89 249.156C204.274 249.007 203.701 248.716 203.217 248.307C202.733 247.898 202.351 247.382 202.101 246.799C201.852 246.216 201.741 245.584 201.779 244.951L206.978 157.13ZM238.244 296.6L237.34 292.659C237.343 292.662 237.346 292.665 237.349 292.668C237.356 292.674 237.363 292.679 237.369 292.683C237.378 292.688 237.384 292.691 237.387 292.692C237.388 292.692 237.39 292.692 237.393 292.691C237.399 292.69 237.408 292.688 237.422 292.684L237.423 292.684L256.517 286.883L256.518 286.883C262.379 285.104 268.016 290.242 266.775 296.246L266.775 296.247L253.214 361.883L252.18 366.891L248.262 366.081L251.066 352.513L262.858 295.437C263.484 292.408 260.639 289.812 257.68 290.711L238.585 296.511C238.471 296.546 238.357 296.575 238.244 296.6ZM238.244 296.6L251.066 352.513L238.244 296.6C238.244 296.6 238.244 296.6 238.244 296.6ZM210.944 157.839L212.602 129.833L212.602 129.832C212.603 129.815 212.609 129.799 212.621 129.786C212.632 129.773 212.647 129.764 212.664 129.761L212.664 129.761L323.697 108.004L323.697 108.004C323.711 108.001 323.72 108.001 323.725 108C323.73 108 323.733 108 323.734 108C323.737 108.001 323.752 108.008 323.771 108.028C323.789 108.048 323.794 108.063 323.795 108.067C323.795 108.068 323.795 108.07 323.794 108.075C323.794 108.08 323.792 108.089 323.788 108.102L323.788 108.103L309.826 156.504L258.537 165.852C257.633 166.017 256.707 166.019 255.803 165.857L210.944 157.839Z" fill="#262C34"/>
</g>
<defs>
<clipPath id="clip0_711_89">
<rect width="512" height="512" fill="white"/>
</clipPath>
</defs>
</svg>
